<svg id="Layer_1" data-name="Layer 1" xmlns="http://www.w3.org/2000/svg" viewBox="0 0 785.67 310.59"><defs><style>.cls-1{fill:#51a79a;}</style></defs><title>logo</title><path class="cls-1" d="M713.25,553.75q-14.7,0-24.65-3.73a41.49,41.49,0,0,1-16-10.07,38.68,38.68,0,0,1-8.74-14.52,53,53,0,0,1-2.72-16.86,42,42,0,0,1,3.67-17.42,46.34,46.34,0,0,1,42.73-27.54,40.18,40.18,0,0,1,16,3.06,35.07,35.07,0,0,1,19.76,21.09A48.9,48.9,0,0,1,746,504.23V529.6h26.15a4.78,4.78,0,0,1,4.12,1.67,6.55,6.55,0,0,1,1.22,4V548a7,7,0,0,1-1.33,3.73,4.47,4.47,0,0,1-4,2.06H746a71.08,71.08,0,0,1-4.89,22.14,55.63,55.63,0,0,1-12.58,19,63.76,63.76,0,0,1-20.59,13.52q-12.24,5.17-29,5.18-18,0-30.6-4.79t-20.54-12.4a47.65,47.65,0,0,1-11.62-16.92,49.86,49.86,0,0,1-3.68-18.42,69.79,69.79,0,0,1,2.06-17.36,114,114,0,0,1,4.45-14,57,57,0,0,1,4.51-9.24,18.64,18.64,0,0,1,2.12-3.06l19.25,10.35a88.18,88.18,0,0,0-4.46,8.46c-1,2.67-2,5.58-3,8.73A36.25,36.25,0,0,0,636,555.19a35,35,0,0,0,2.55,13.36,28.94,28.94,0,0,0,7.85,10.85,38.68,38.68,0,0,0,13.69,7.34,65.73,65.73,0,0,0,20.19,2.73q11.36,0,19.31-3.12a36.93,36.93,0,0,0,12.91-8.06,31.61,31.61,0,0,0,7.35-11.41,43.94,43.94,0,0,0,2.72-13.13ZM678.64,438.68a11.47,11.47,0,0,1,3.56-8.51,13,13,0,0,1,17.8,0,12,12,0,0,1,0,17.08,13.2,13.2,0,0,1-17.8,0A11.43,11.43,0,0,1,678.64,438.68ZM722,529.6V503a16.55,16.55,0,0,0-4.45-11.46q-4.46-4.89-12.58-4.9a19.12,19.12,0,0,0-7.23,1.45,20.24,20.24,0,0,0-6.46,4.23,21.39,21.39,0,0,0-4.67,6.73,22.15,22.15,0,0,0-1.78,9.18,19.48,19.48,0,0,0,7.9,16.36,23.34,23.34,0,0,0,8.29,3.79,41.69,41.69,0,0,0,10.18,1.22Zm-11-90.92a11.58,11.58,0,0,1,3.51-8.51,12.1,12.1,0,0,1,9-3.51,12.33,12.33,0,0,1,9,3.51,12,12,0,0,1,0,17.08,12.44,12.44,0,0,1-9,3.45,12.21,12.21,0,0,1-9-3.45A11.54,11.54,0,0,1,711,438.68Z" transform="translate(-612.09 -400.07)"/><path d="M789.42,460.6a21.91,21.91,0,0,1-5.62,4.9,13.78,13.78,0,0,1-7.29,2q-7.68,0-12.36-4.95t-4.67-12.74V433.56h8.35v16.69q0,4.58,2.56,6.73a9.44,9.44,0,0,0,6.34,2.17,7.92,7.92,0,0,0,6-2.61,8.88,8.88,0,0,0,2.45-6.29v-14h8.12v14a8.8,8.8,0,0,0,2.5,6.29,8.1,8.1,0,0,0,6.07,2.61,9.44,9.44,0,0,0,6.34-2.17q2.56-2.16,2.56-6.73V433.56h8.35v16.25a17.33,17.33,0,0,1-4.9,12.74,16.38,16.38,0,0,1-12.13,4.95,14,14,0,0,1-7.34-2A17,17,0,0,1,789.42,460.6Z" transform="translate(-612.09 -400.07)"/><path class="cls-1" d="M772.22,553.75q-3.22,0-4.5-1.67a5.92,5.92,0,0,1-1.28-3.67V536.05a7.57,7.57,0,0,1,1.45-4.34,4.91,4.91,0,0,1,4.33-2.11h34.5q3.35,0,4.62,1.67a6.4,6.4,0,0,1,1.28,4V548a6.81,6.81,0,0,1-1.39,3.73,4.82,4.82,0,0,1-4.28,2.06Z" transform="translate(-612.09 -400.07)"/><path class="cls-1" d="M805.72,553.75q-3.22,0-4.5-1.67a5.86,5.86,0,0,1-1.28-3.67V536.05a7.63,7.63,0,0,1,1.44-4.34,4.93,4.93,0,0,1,4.34-2.11h34.5q3.35,0,4.62,1.67a6.4,6.4,0,0,1,1.28,4V548a6.89,6.89,0,0,1-1.39,3.73,4.83,4.83,0,0,1-4.29,2.06Z" transform="translate(-612.09 -400.07)"/><path class="cls-1" d="M838.77,553.75a4.8,4.8,0,0,1-4.06-1.67,5.92,5.92,0,0,1-1.28-3.67V536.05a7.79,7.79,0,0,1,1.39-4.34,4.48,4.48,0,0,1,3.95-2.11h28.49V471.18H891v82.57Zm8.8-115.07a11.57,11.57,0,0,1,3.5-8.51,13.11,13.11,0,0,1,17.86,0,12,12,0,0,1,0,17.08,13.28,13.28,0,0,1-17.86,0A11.53,11.53,0,0,1,847.57,438.68Zm16-26.82a11.06,11.06,0,0,1,3.62-8.34,12.46,12.46,0,0,1,8.95-3.45,12.73,12.73,0,0,1,9,3.45,10.92,10.92,0,0,1,3.73,8.34,11.31,11.31,0,0,1-3.73,8.68,12.73,12.73,0,0,1-9,3.45,12.46,12.46,0,0,1-8.95-3.45A11.46,11.46,0,0,1,863.59,411.86ZM880,438.68a11.57,11.57,0,0,1,3.5-8.51,13.19,13.19,0,0,1,17.92,0,12.14,12.14,0,0,1,0,17.08,13.36,13.36,0,0,1-17.92,0A11.53,11.53,0,0,1,880,438.68Z" transform="translate(-612.09 -400.07)"/><path class="cls-1" d="M968,553.75q-12.91,0-21.7-3.67a41,41,0,0,1-14.3-9.52,35.77,35.77,0,0,1-8-13.35A47.75,47.75,0,0,1,921.45,512a54.24,54.24,0,0,1,3.18-18.59,47.94,47.94,0,0,1,9-15.47,42.48,42.48,0,0,1,14-10.51,41.1,41.1,0,0,1,17.8-3.84,42.93,42.93,0,0,1,16.53,3.06,36.18,36.18,0,0,1,12.57,8.51,37.47,37.47,0,0,1,8,13.08,48.61,48.61,0,0,1,2.78,16.75v45.62q0,13-3.89,22.31a36.71,36.71,0,0,1-11.08,15,46.73,46.73,0,0,1-17,8.35,82.62,82.62,0,0,1-21.65,2.67c-3,0-6.19-.1-9.68-.28s-7.42-.61-11.8-1.28l1.68-23.26q6.11.78,11.57,1.23t9.23.44a69.24,69.24,0,0,0,11-.83,25.88,25.88,0,0,0,9.13-3.23,18.14,18.14,0,0,0,6.45-6.62q2.44-4.23,2.9-11.35Zm13.91-24.15V511.13q0-11.81-4.67-18.14a15.27,15.27,0,0,0-13-6.35,17.06,17.06,0,0,0-7.12,1.56,20.55,20.55,0,0,0-6.24,4.4,21.87,21.87,0,0,0-4.45,6.73,22.46,22.46,0,0,0-1.67,8.9,24.14,24.14,0,0,0,1.84,10,17.55,17.55,0,0,0,5,6.62,19.46,19.46,0,0,0,7.34,3.68,33,33,0,0,0,8.52,1.11Z" transform="translate(-612.09 -400.07)"/><path class="cls-1" d="M612.09,633.37h14.79L641.1,687.9h.17l17-54.53h13.3l16.63,54.53h.23l14.91-54.53H717l-22,75.74H682.15l-17.54-57.68h-.23l-17.49,57.68H634.45Z" transform="translate(-612.09 -400.07)"/><path class="cls-1" d="M740.87,645.52H717.7V633.37h59.92v12.15H754.4v63.59H740.87Z" transform="translate(-612.09 -400.07)"/><path class="cls-1" d="M786.74,633.37h13.47v30.22h35.44V633.37h13.47v75.74H835.65V675.74H800.21v33.37H786.74Z" transform="translate(-612.09 -400.07)"/><path class="cls-1" d="M866,633.37h50.23v12.15H879.45v18.7h34.81v12.15H879.45V697H918v12.15H866Z" transform="translate(-612.09 -400.07)"/><path class="cls-1" d="M1012.59,709.11h-44a48.42,48.42,0,0,1-16.46-2.72,38.19,38.19,0,0,1-13.07-7.8,35.87,35.87,0,0,1-8.66-12.41,41.67,41.67,0,0,1-3.15-16.57,37,37,0,0,1,3.15-15.34A36.55,36.55,0,0,1,939,642.2a41.65,41.65,0,0,1,56,0,36.85,36.85,0,0,1,11.75,27.41,34.09,34.09,0,0,1-1.49,10.57,31.75,31.75,0,0,1-3.81,8,29.13,29.13,0,0,1-5.14,5.81,42,42,0,0,1-5.44,4v.23h21.67Zm-45.87-65.48a25.63,25.63,0,0,0-10.15,2,24,24,0,0,0-8,5.53,26,26,0,0,0-5.3,8.35A27.85,27.85,0,0,0,941.32,670a29.54,29.54,0,0,0,1.92,10.75,25.78,25.78,0,0,0,5.36,8.57A24.76,24.76,0,0,0,966.89,697a26.11,26.11,0,0,0,10.35-2,24.09,24.09,0,0,0,8.2-5.65,26,26,0,0,0,5.33-8.57A29.54,29.54,0,0,0,992.7,670a27.85,27.85,0,0,0-1.93-10.46,25.77,25.77,0,0,0-5.33-8.35,23.8,23.8,0,0,0-8.2-5.53A27.26,27.26,0,0,0,966.72,643.63Z" transform="translate(-612.09 -400.07)"/><path d="M1137.29,668.33h-.47a15.31,15.31,0,0,1-11-5.17l-52.28-59.37a15.3,15.3,0,0,1,23-20.22L1138,630.68l189.09-189.62a15.29,15.29,0,1,1,21.66,21.6L1148.12,663.84A15.29,15.29,0,0,1,1137.29,668.33Z" transform="translate(-612.09 -400.07)"/><path class="cls-1" d="M1145.4,573.86a15.29,15.29,0,0,1-10.84-26.09l142.64-143.2a15.3,15.3,0,1,1,21.68,21.59l-142.64,143.2A15.25,15.25,0,0,1,1145.4,573.86Z" transform="translate(-612.09 -400.07)"/><path class="cls-1" d="M1311.18,586.29a15.28,15.28,0,0,1-10.85-26.07l71.28-71.85a15.29,15.29,0,0,1,21.7,21.56L1322,581.78A15.26,15.26,0,0,1,1311.18,586.29Z" transform="translate(-612.09 -400.07)"/><path class="cls-1" d="M1337.36,642a15.3,15.3,0,0,1-11.72-25.67l40.47-43.86a15.29,15.29,0,0,1,22.48,20.74l-40.46,43.87A15.3,15.3,0,0,1,1337.36,642Z" transform="translate(-612.09 -400.07)"/><path class="cls-1" d="M1263,710.65a15.3,15.3,0,0,1-10.43-26.21L1284.93,653a15.3,15.3,0,1,1,21.44,21.83L1274,706.27A15.25,15.25,0,0,1,1263,710.65Z" transform="translate(-612.09 -400.07)"/><path class="cls-1" d="M1180.07,709.11A15.3,15.3,0,0,1,1169.22,683L1259,592.68a15.29,15.29,0,0,1,21.7,21.56l-89.79,90.36A15.24,15.24,0,0,1,1180.07,709.11Z" transform="translate(-612.09 -400.07)"/></svg>