<svg id="Layer_1" data-name="Layer 1" xmlns="http://www.w3.org/2000/svg" viewBox="0 0 409.69 705.14"><defs><style>.cls-1{fill:#51a79a;}</style></defs><title>logo</title><path class="cls-1" d="M837.56,717.94q-15,0-25.21-3.81A42.66,42.66,0,0,1,796,703.83,39.43,39.43,0,0,1,787.08,689a54.2,54.2,0,0,1-2.79-17.25A43,43,0,0,1,788,653.91a47.43,47.43,0,0,1,43.72-28.18,41.26,41.26,0,0,1,16.39,3.13,36,36,0,0,1,20.21,21.58A50,50,0,0,1,871,667.28v26h26.75c2,0,3.38.57,4.21,1.71a6.68,6.68,0,0,1,1.26,4.09v13a7.24,7.24,0,0,1-1.37,3.82,4.57,4.57,0,0,1-4.1,2.1H871a72.93,72.93,0,0,1-5,22.66,56.91,56.91,0,0,1-12.86,19.46,65.35,65.35,0,0,1-21.06,13.83q-12.52,5.29-29.71,5.3-18.45,0-31.31-4.9t-21-12.69a48.73,48.73,0,0,1-11.9-17.31,51,51,0,0,1-3.75-18.84,71.34,71.34,0,0,1,2.1-17.75,115.44,115.44,0,0,1,4.56-14.29A57.18,57.18,0,0,1,745.7,684a19.6,19.6,0,0,1,2.16-3.13l19.69,10.59a89.82,89.82,0,0,0-4.55,8.65q-1.59,4.09-3,8.93a36.76,36.76,0,0,0-1.42,10.42,35.51,35.51,0,0,0,2.62,13.66,29.45,29.45,0,0,0,8,11.1,39.56,39.56,0,0,0,14,7.51,67.26,67.26,0,0,0,20.66,2.79q11.61,0,19.75-3.18a38,38,0,0,0,13.2-8.26,32.26,32.26,0,0,0,7.52-11.67,45,45,0,0,0,2.79-13.43Zm-35.4-117.71a11.74,11.74,0,0,1,3.64-8.7,13.34,13.34,0,0,1,18.21,0A12.28,12.28,0,0,1,824,609a13.51,13.51,0,0,1-18.21,0A11.71,11.71,0,0,1,802.16,600.23Zm44.4,93V666A16.85,16.85,0,0,0,842,654.31q-4.54-5-12.86-5a19.43,19.43,0,0,0-7.4,1.48,20.66,20.66,0,0,0-6.6,4.32,21.84,21.84,0,0,0-4.78,6.89,22.6,22.6,0,0,0-1.83,9.39,20.42,20.42,0,0,0,2.28,10,20.65,20.65,0,0,0,5.81,6.78A24.06,24.06,0,0,0,825.1,692a42.53,42.53,0,0,0,10.41,1.25Zm-11.28-93a11.85,11.85,0,0,1,3.59-8.7,12.38,12.38,0,0,1,9.16-3.59,12.59,12.59,0,0,1,9.23,3.59,12.3,12.3,0,0,1,0,17.47,12.75,12.75,0,0,1-9.23,3.53,12.53,12.53,0,0,1-9.16-3.53A11.82,11.82,0,0,1,835.28,600.23Z" transform="translate(-734.08 -171.72)"/><path d="M915.48,622.66a22.21,22.21,0,0,1-5.75,5,14.08,14.08,0,0,1-7.45,2.05q-7.86,0-12.64-5.07t-4.78-13V595h8.54v17.07q0,4.66,2.62,6.89a9.65,9.65,0,0,0,6.48,2.22,8.08,8.08,0,0,0,6.15-2.68,9.08,9.08,0,0,0,2.51-6.43V597.73h8.31v14.34A9,9,0,0,0,922,618.5a8.23,8.23,0,0,0,6.2,2.68,9.7,9.7,0,0,0,6.49-2.22c1.74-1.48,2.62-3.78,2.62-6.89V595h8.54v16.62a17.75,17.75,0,0,1-5,13,16.76,16.76,0,0,1-12.41,5.07,14.42,14.42,0,0,1-7.52-2.05A17.61,17.61,0,0,1,915.48,622.66Z" transform="translate(-734.08 -171.72)"/><path class="cls-1" d="M897.9,717.94q-3.3,0-4.62-1.71a6,6,0,0,1-1.3-3.75V699.84a7.74,7.74,0,0,1,1.48-4.44,5,5,0,0,1,4.44-2.16h35.28q3.42,0,4.73,1.71a6.52,6.52,0,0,1,1.31,4.09v13a7.11,7.11,0,0,1-1.42,3.82,5,5,0,0,1-4.39,2.1Z" transform="translate(-734.08 -171.72)"/><path class="cls-1" d="M932.16,717.94q-3.3,0-4.61-1.71a6,6,0,0,1-1.31-3.75V699.84a7.81,7.81,0,0,1,1.48-4.44,5,5,0,0,1,4.44-2.16h35.29c2.28,0,3.85.57,4.73,1.71a6.52,6.52,0,0,1,1.3,4.09v13a7,7,0,0,1-1.42,3.82,4.93,4.93,0,0,1-4.38,2.1Z" transform="translate(-734.08 -171.72)"/><path class="cls-1" d="M966,717.94a4.93,4.93,0,0,1-4.16-1.71,6,6,0,0,1-1.3-3.75V699.84a8,8,0,0,1,1.42-4.44,4.57,4.57,0,0,1,4-2.16h29.14V633.47h24.25v84.47Zm9-117.71a11.85,11.85,0,0,1,3.59-8.7,13.42,13.42,0,0,1,18.27,0,12.3,12.3,0,0,1,0,17.47,13.58,13.58,0,0,1-18.27,0A11.82,11.82,0,0,1,975,600.23Zm16.4-27.43a11.35,11.35,0,0,1,3.7-8.54,12.76,12.76,0,0,1,9.16-3.53,13,13,0,0,1,9.16,3.53,11.22,11.22,0,0,1,3.82,8.54,11.59,11.59,0,0,1-3.82,8.88,13,13,0,0,1-9.16,3.53,12.76,12.76,0,0,1-9.16-3.53A11.73,11.73,0,0,1,991.36,572.8Zm16.73,27.43a11.81,11.81,0,0,1,3.59-8.7,13.48,13.48,0,0,1,18.32,0,12.42,12.42,0,0,1,0,17.47,13.65,13.65,0,0,1-18.32,0A11.78,11.78,0,0,1,1008.09,600.23Z" transform="translate(-734.08 -171.72)"/><path class="cls-1" d="M1098.13,717.94q-13.2,0-22.2-3.76a41.81,41.81,0,0,1-14.62-9.73,36.53,36.53,0,0,1-8.2-13.66,48.76,48.76,0,0,1-2.56-15.54,55.71,55.71,0,0,1,3.24-19,49.09,49.09,0,0,1,9.23-15.82,43.29,43.29,0,0,1,14.28-10.76,42.06,42.06,0,0,1,18.22-3.93,44,44,0,0,1,16.9,3.13,37.06,37.06,0,0,1,12.86,8.71,38.07,38.07,0,0,1,8.14,13.38,49.57,49.57,0,0,1,2.85,17.13v46.67q0,13.32-4,22.83A37.62,37.62,0,0,1,1121,752.89a48.11,48.11,0,0,1-17.42,8.54,84.5,84.5,0,0,1-22.14,2.73c-3,0-6.34-.1-9.9-.28s-7.59-.63-12.07-1.31l1.71-23.8q6.25.79,11.84,1.26t9.44.45a70,70,0,0,0,11.27-.85,26.33,26.33,0,0,0,9.34-3.3,18.6,18.6,0,0,0,6.6-6.78q2.5-4.32,3-11.61Zm14.23-24.7v-18.9q0-12.06-4.78-18.55t-13.32-6.49a17.54,17.54,0,0,0-7.28,1.59,21,21,0,0,0-6.38,4.5,22.18,22.18,0,0,0-4.55,6.88,23,23,0,0,0-1.71,9.11,24.73,24.73,0,0,0,1.88,10.19,18.07,18.07,0,0,0,5.12,6.77,20,20,0,0,0,7.52,3.76,33.53,33.53,0,0,0,8.71,1.14Z" transform="translate(-734.08 -171.72)"/><path class="cls-1" d="M734.08,799.39h15.14l14.54,55.78h.18l17.42-55.78H795l17,55.78h.23l15.25-55.78h14L818.9,876.87H805.76l-18-59h-.23l-17.89,59H757Z" transform="translate(-734.08 -171.72)"/><path class="cls-1" d="M865.82,811.82h-23.7V799.39h61.3v12.43H879.66v65H865.82Z" transform="translate(-734.08 -171.72)"/><path class="cls-1" d="M912.74,799.39h13.79V830.3h36.24V799.39h13.79v77.48H962.77V842.73H926.53v34.14H912.74Z" transform="translate(-734.08 -171.72)"/><path class="cls-1" d="M993.8,799.39h51.38v12.43h-37.6V831h35.61v12.43h-35.61v21.06h39.48v12.43H993.8Z" transform="translate(-734.08 -171.72)"/><path class="cls-1" d="M1143.78,876.87h-45a49.28,49.28,0,0,1-16.83-2.79,38.75,38.75,0,0,1-13.37-8,36.71,36.71,0,0,1-8.86-12.7,42.59,42.59,0,0,1-3.23-16.95,37.88,37.88,0,0,1,3.23-15.69,37.35,37.35,0,0,1,8.83-12.35,42.14,42.14,0,0,1,28.65-11,42.16,42.16,0,0,1,15.72,2.94,41.31,41.31,0,0,1,13,8.09,37.69,37.69,0,0,1,12,28,35.07,35.07,0,0,1-1.52,10.82,32.27,32.27,0,0,1-3.9,8.15,30.24,30.24,0,0,1-5.25,6,42.75,42.75,0,0,1-5.57,4.11v.24h22.17Zm-46.93-67a26.22,26.22,0,0,0-10.38,2,24.47,24.47,0,0,0-8.21,5.66,26.48,26.48,0,0,0-5.42,8.53,28.54,28.54,0,0,0-2,10.71,30.23,30.23,0,0,0,2,11,26.22,26.22,0,0,0,5.48,8.77,25.42,25.42,0,0,0,8.27,5.77,25.72,25.72,0,0,0,10.44,2.09,26.79,26.79,0,0,0,10.59-2.09,24.66,24.66,0,0,0,8.38-5.77,26.66,26.66,0,0,0,5.46-8.77,30.23,30.23,0,0,0,2-11,28.54,28.54,0,0,0-2-10.71,26.41,26.41,0,0,0-5.46-8.53,24.39,24.39,0,0,0-8.38-5.66A28,28,0,0,0,1096.85,809.89Z" transform="translate(-734.08 -171.72)"/><path d="M841.43,443H841a15.45,15.45,0,0,1-11.13-5.23l-52.86-60a15.46,15.46,0,1,1,23.21-20.44l42,47.63,191.16-191.71a15.46,15.46,0,0,1,21.9,21.84L852.38,438.41A15.49,15.49,0,0,1,841.43,443Z" transform="translate(-734.08 -171.72)"/><path class="cls-1" d="M849.62,347.44a15.47,15.47,0,0,1-11-26.38L982.88,176.28a15.46,15.46,0,1,1,21.91,21.82L860.58,342.89A15.43,15.43,0,0,1,849.62,347.44Z" transform="translate(-734.08 -171.72)"/><path class="cls-1" d="M1017.23,360a15.47,15.47,0,0,1-11-26.37L1078.33,261a15.46,15.46,0,1,1,21.94,21.8l-72.07,72.65A15.44,15.44,0,0,1,1017.23,360Z" transform="translate(-734.08 -171.72)"/><path class="cls-1" d="M1043.7,416.32a15.46,15.46,0,0,1-11.85-25.94L1072.77,346a15.46,15.46,0,1,1,22.73,21l-40.91,44.35A15.38,15.38,0,0,1,1043.7,416.32Z" transform="translate(-734.08 -171.72)"/><path class="cls-1" d="M968.49,485.74a15.47,15.47,0,0,1-10.55-26.5l32.76-31.77a15.47,15.47,0,1,1,21.67,22.07l-32.76,31.77A15.41,15.41,0,0,1,968.49,485.74Z" transform="translate(-734.08 -171.72)"/><path class="cls-1" d="M884.67,484.18a15.46,15.46,0,0,1-11-26.36l90.78-91.36a15.46,15.46,0,1,1,21.94,21.8l-90.78,91.36A15.42,15.42,0,0,1,884.67,484.18Z" transform="translate(-734.08 -171.72)"/></svg>